<svg width="144" height="91" viewBox="0 0 144 91" fill="none" xmlns="http://www.w3.org/2000/svg">
<path d="M8.00093 87.0087C6.47694 87.0087 5.10536 86.689 3.88617 86.0496C2.68083 85.3963 1.7318 84.4929 1.03908 83.3392C0.346361 82.1855 0 80.879 0 79.4195C0 77.96 0.346361 76.6535 1.03908 75.4998C1.7318 74.3461 2.68083 73.4496 3.88617 72.8102C5.10536 72.157 6.47694 71.8303 8.00093 71.8303C9.33095 71.8303 10.5294 72.0666 11.5962 72.5392C12.6629 73.0118 13.5496 73.6929 14.2562 74.5824L11.6377 76.9593C10.6956 75.8195 9.55262 75.2496 8.20875 75.2496C7.41904 75.2496 6.71247 75.4234 6.08902 75.7709C5.47942 76.1183 5.00145 76.6118 4.65509 77.2512C4.32258 77.8766 4.15633 78.5994 4.15633 79.4195C4.15633 80.2396 4.32258 80.9693 4.65509 81.6087C5.00145 82.2342 5.47942 82.7207 6.08902 83.0681C6.71247 83.4156 7.41904 83.5894 8.20875 83.5894C9.55262 83.5894 10.6956 83.0195 11.6377 81.8797L14.2562 84.2566C13.5496 85.1461 12.6629 85.8272 11.5962 86.2998C10.5294 86.7724 9.33095 87.0087 8.00093 87.0087Z" fill="white" fill-opacity="0.7"/>
<path d="M21.2114 86.9044C20.0061 86.9044 18.9185 86.6542 17.9487 86.1539C16.9789 85.6535 16.2169 84.9585 15.6627 84.0689C15.1224 83.1793 14.8522 82.1716 14.8522 81.0458C14.8522 79.9338 15.1224 78.933 15.6627 78.0434C16.2169 77.1539 16.9719 76.4658 17.9279 75.9793C18.8977 75.479 19.9922 75.2288 21.2114 75.2288C22.4306 75.2288 23.5251 75.479 24.4949 75.9793C25.4647 76.4658 26.2198 77.1539 26.7601 78.0434C27.3004 78.9191 27.5706 79.9199 27.5706 81.0458C27.5706 82.1716 27.3004 83.1793 26.7601 84.0689C26.2198 84.9585 25.4647 85.6535 24.4949 86.1539C23.5251 86.6542 22.4306 86.9044 21.2114 86.9044ZM21.2114 83.7562C21.9041 83.7562 22.4721 83.5199 22.9155 83.0473C23.3588 82.5608 23.5805 81.8936 23.5805 81.0458C23.5805 80.2118 23.3588 79.5585 22.9155 79.0859C22.4721 78.6133 21.9041 78.377 21.2114 78.377C20.5187 78.377 19.9506 78.6133 19.5073 79.0859C19.064 79.5585 18.8423 80.2118 18.8423 81.0458C18.8423 81.8936 19.064 82.5608 19.5073 83.0473C19.9506 83.5199 20.5187 83.7562 21.2114 83.7562Z" fill="white" fill-opacity="0.7"/>
<path d="M44.0715 75.2288C45.457 75.2288 46.5584 75.6458 47.3758 76.4797C48.2071 77.3137 48.6227 78.5716 48.6227 80.2535V86.7168H44.6742V80.8998C44.6742 80.1075 44.5218 79.5238 44.217 79.1485C43.926 78.7732 43.5104 78.5855 42.9701 78.5855C42.3743 78.5855 41.8964 78.794 41.5362 79.211C41.1759 79.628 40.9958 80.2604 40.9958 81.1083V86.7168H37.0473V80.8998C37.0473 79.3569 36.4793 78.5855 35.3432 78.5855C34.7336 78.5855 34.2487 78.794 33.8885 79.211C33.5283 79.628 33.3482 80.2604 33.3482 81.1083V86.7168H29.3997V75.4164H33.1612V76.6048C33.5768 76.1461 34.0686 75.8056 34.6367 75.5832C35.2185 75.3469 35.8489 75.2288 36.5278 75.2288C37.3175 75.2288 38.0241 75.3747 38.6475 75.6666C39.271 75.9585 39.7766 76.4033 40.1646 77.001C40.6079 76.4311 41.169 75.9932 41.8479 75.6875C42.5267 75.3817 43.268 75.2288 44.0715 75.2288Z" fill="white" fill-opacity="0.7"/>
<path d="M51.1149 75.4164H55.0634V86.7168H51.1149V75.4164ZM53.0891 74.1655C52.3687 74.1655 51.7868 73.9639 51.3435 73.5608C50.9001 73.1577 50.6785 72.6573 50.6785 72.0597C50.6785 71.462 50.9001 70.9616 51.3435 70.5585C51.7868 70.1554 52.3687 69.9539 53.0891 69.9539C53.8096 69.9539 54.3914 70.1485 54.8348 70.5377C55.2781 70.9129 55.4998 71.3994 55.4998 71.9971C55.4998 72.6226 55.2781 73.1438 54.8348 73.5608C54.3914 73.9639 53.8096 74.1655 53.0891 74.1655Z" fill="white" fill-opacity="0.7"/>
<path d="M64.9653 75.2288C66.3646 75.2288 67.4868 75.6458 68.332 76.4797C69.1909 77.3137 69.6204 78.5716 69.6204 80.2535V86.7168H65.6719V80.8998C65.6719 79.3569 65.0554 78.5855 63.8223 78.5855C63.1435 78.5855 62.5962 78.8079 62.1806 79.2527C61.7788 79.6975 61.5779 80.3647 61.5779 81.2542V86.7168H57.6294V75.4164H61.3909V76.6465C61.8342 76.1878 62.3607 75.8404 62.9703 75.6041C63.5799 75.3539 64.2449 75.2288 64.9653 75.2288Z" fill="white" fill-opacity="0.7"/>
<path d="M84.3775 75.4164V84.6527C84.3775 86.7515 83.8095 88.3222 82.6734 89.3647C81.5373 90.421 79.9025 90.9492 77.7689 90.9492C76.6606 90.9492 75.6215 90.8241 74.6517 90.5739C73.6819 90.3237 72.8575 89.9554 72.1787 89.4689L73.6126 86.6959C74.0698 87.0712 74.6448 87.3631 75.3375 87.5716C76.0441 87.794 76.7368 87.9052 77.4156 87.9052C78.4547 87.9052 79.2167 87.6759 79.7016 87.2172C80.1865 86.7585 80.429 86.0774 80.429 85.1739V84.7986C79.667 85.6882 78.5517 86.133 77.0831 86.133C76.0856 86.133 75.1643 85.9106 74.3192 85.4658C73.4741 85.0071 72.8021 84.3678 72.3034 83.5477C71.8046 82.7137 71.5552 81.7546 71.5552 80.6705C71.5552 79.6002 71.8046 78.655 72.3034 77.8349C72.8021 77.001 73.4741 76.3616 74.3192 75.9168C75.1643 75.4581 76.0856 75.2288 77.0831 75.2288C78.6902 75.2288 79.8679 75.75 80.616 76.7925V75.4164H84.3775ZM78.0183 82.9847C78.7249 82.9847 79.3068 82.7693 79.764 82.3384C80.235 81.9075 80.4706 81.3515 80.4706 80.6705C80.4706 79.9894 80.2419 79.4404 79.7848 79.0234C79.3276 78.5925 78.7387 78.377 78.0183 78.377C77.2979 78.377 76.7021 78.5925 76.2311 79.0234C75.7739 79.4404 75.5453 79.9894 75.5453 80.6705C75.5453 81.3515 75.7808 81.9075 76.2519 82.3384C76.7229 82.7693 77.3117 82.9847 78.0183 82.9847Z" fill="white" fill-opacity="0.7"/>
<path d="M97.0562 86.9044C96.1141 86.9044 95.1859 86.8002 94.2715 86.5917C93.3571 86.3693 92.6228 86.0844 92.0686 85.7369L93.2532 83.0265C93.7658 83.3461 94.3754 83.6033 95.082 83.7979C95.7886 83.9786 96.4882 84.0689 97.1809 84.0689C97.8182 84.0689 98.2685 84.0064 98.5317 83.8813C98.8088 83.7423 98.9474 83.5477 98.9474 83.2975C98.9474 83.0473 98.7811 82.8736 98.4486 82.7763C98.13 82.6651 97.6173 82.5608 96.9108 82.4635C96.0102 82.3523 95.2413 82.2064 94.604 82.0257C93.9806 81.845 93.4402 81.5114 92.983 81.0249C92.5258 80.5384 92.2972 79.8573 92.2972 78.9817C92.2972 78.2589 92.512 77.6195 92.9415 77.0635C93.371 76.4936 93.9944 76.0489 94.8118 75.7292C95.6431 75.3956 96.6337 75.2288 97.7836 75.2288C98.601 75.2288 99.4115 75.3122 100.215 75.479C101.019 75.6458 101.691 75.882 102.231 76.1878L101.046 78.8774C100.049 78.3214 98.9681 78.0434 97.8044 78.0434C97.1809 78.0434 96.7237 78.1199 96.4328 78.2728C96.1419 78.4118 95.9964 78.5994 95.9964 78.8357C95.9964 79.0998 96.1557 79.2875 96.4744 79.3987C96.793 79.4959 97.3195 79.6002 98.0538 79.7114C98.982 79.8504 99.7509 80.0102 100.361 80.1909C100.97 80.3716 101.497 80.7052 101.94 81.1917C102.397 81.6643 102.626 82.3315 102.626 83.1932C102.626 83.9021 102.411 84.5415 101.981 85.1114C101.552 85.6674 100.915 86.1052 100.07 86.4249C99.2383 86.7446 98.2339 86.9044 97.0562 86.9044Z" fill="white" fill-opacity="0.7"/>
<path d="M109.98 86.9044C108.774 86.9044 107.687 86.6542 106.717 86.1539C105.747 85.6535 104.985 84.9585 104.431 84.0689C103.891 83.1793 103.621 82.1716 103.621 81.0458C103.621 79.9338 103.891 78.933 104.431 78.0434C104.985 77.1539 105.74 76.4658 106.696 75.9793C107.666 75.479 108.761 75.2288 109.98 75.2288C111.199 75.2288 112.294 75.479 113.263 75.9793C114.233 76.4658 114.988 77.1539 115.529 78.0434C116.069 78.9191 116.339 79.9199 116.339 81.0458C116.339 82.1716 116.069 83.1793 115.529 84.0689C114.988 84.9585 114.233 85.6535 113.263 86.1539C112.294 86.6542 111.199 86.9044 109.98 86.9044ZM109.98 83.7562C110.673 83.7562 111.241 83.5199 111.684 83.0473C112.127 82.5608 112.349 81.8936 112.349 81.0458C112.349 80.2118 112.127 79.5585 111.684 79.0859C111.241 78.6133 110.673 78.377 109.98 78.377C109.287 78.377 108.719 78.6133 108.276 79.0859C107.832 79.5585 107.611 80.2118 107.611 81.0458C107.611 81.8936 107.832 82.5608 108.276 83.0473C108.719 83.5199 109.287 83.7562 109.98 83.7562Z" fill="white" fill-opacity="0.7"/>
<path d="M123.821 86.9044C122.615 86.9044 121.528 86.6542 120.558 86.1539C119.588 85.6535 118.826 84.9585 118.272 84.0689C117.732 83.1793 117.462 82.1716 117.462 81.0458C117.462 79.9338 117.732 78.933 118.272 78.0434C118.826 77.1539 119.581 76.4658 120.537 75.9793C121.507 75.479 122.602 75.2288 123.821 75.2288C125.04 75.2288 126.134 75.479 127.104 75.9793C128.074 76.4658 128.829 77.1539 129.369 78.0434C129.91 78.9191 130.18 79.9199 130.18 81.0458C130.18 82.1716 129.91 83.1793 129.369 84.0689C128.829 84.9585 128.074 85.6535 127.104 86.1539C126.134 86.6542 125.04 86.9044 123.821 86.9044ZM123.821 83.7562C124.513 83.7562 125.081 83.5199 125.525 83.0473C125.968 82.5608 126.19 81.8936 126.19 81.0458C126.19 80.2118 125.968 79.5585 125.525 79.0859C125.081 78.6133 124.513 78.377 123.821 78.377C123.128 78.377 122.56 78.6133 122.117 79.0859C121.673 79.5585 121.452 80.2118 121.452 81.0458C121.452 81.8936 121.673 82.5608 122.117 83.0473C122.56 83.5199 123.128 83.7562 123.821 83.7562Z" fill="white" fill-opacity="0.7"/>
<path d="M139.345 75.2288C140.744 75.2288 141.866 75.6458 142.712 76.4797C143.571 77.3137 144 78.5716 144 80.2535V86.7168H140.051V80.8998C140.051 79.3569 139.435 78.5855 138.202 78.5855C137.523 78.5855 136.976 78.8079 136.56 79.2527C136.158 79.6975 135.958 80.3647 135.958 81.2542V86.7168H132.009V75.4164H135.77V76.6465C136.214 76.1878 136.74 75.8404 137.35 75.6041C137.959 75.3539 138.624 75.2288 139.345 75.2288Z" fill="white" fill-opacity="0.7"/>
<path d="M94.0869 23.2442H91.122V16.4593C91.122 7.90701 83.6048 0.949219 74.365 0.949219C65.125 0.949219 57.6074 7.90701 57.6074 16.4593V23.2442H54.6426C53.685 23.2442 52.909 23.9625 52.909 24.8487V54.943C52.909 55.8293 53.685 56.5476 54.6426 56.5476H94.087C95.0443 56.5476 95.8204 55.8293 95.8204 54.943V24.8487C95.8202 23.9625 95.0442 23.2442 94.0869 23.2442ZM77.0676 41.56V47.9668C77.0676 48.5264 76.5775 48.9801 75.9728 48.9801H72.7564C72.1518 48.9801 71.6615 48.5265 71.6615 47.9668V41.56C70.4655 40.7752 69.6844 39.4848 69.6844 38.0246C69.6844 35.6325 71.7797 33.6929 74.3646 33.6929C76.9491 33.6929 79.0444 35.6325 79.0444 38.0246C79.0446 39.4848 78.2635 40.7752 77.0676 41.56ZM83.1214 23.2442H65.608V16.4593C65.608 11.9901 69.5364 8.35438 74.365 8.35438C79.1934 8.35438 83.1214 11.9901 83.1214 16.4593V23.2442Z" fill="white" fill-opacity="0.7"/>
</svg>
