<svg width="22" height="22" viewBox="0 0 22 22" fill="none" xmlns="http://www.w3.org/2000/svg">
<path fill-rule="evenodd" clip-rule="evenodd" d="M11.1614 18C17.7568 18 21.4004 12.0356 22 10.5223C21.5388 8.78635 17.3417 3 11.1614 3C4.10482 3 0.461216 8.78635 0 10.5223C0.368973 11.9021 3.82809 18 11.1614 18ZM15.9581 10.4777C15.9581 13.1326 13.7279 15.2849 10.9769 15.2849C8.22594 15.2849 5.99581 13.1326 5.99581 10.4777C5.99581 7.82285 8.22594 5.67062 10.9769 5.67062C13.7279 5.67062 15.9581 7.82285 15.9581 10.4777ZM13.7442 10.4777C13.7442 11.9527 12.5053 13.1484 10.9769 13.1484C9.4486 13.1484 8.20964 11.9527 8.20964 10.4777C8.20964 9.0028 9.4486 7.80712 10.9769 7.80712C12.5053 7.80712 13.7442 9.0028 13.7442 10.4777Z" fill="black"/>
<rect x="19.9922" y="0.699219" width="1.69231" height="27.0769" transform="rotate(45 19.9922 0.699219)" fill="black"/>
</svg>
