<svg width="24" height="26" viewBox="0 0 24 26" fill="none" xmlns="http://www.w3.org/2000/svg">
<path d="M8.13543 5.61719H3.75538C3.35002 5.61719 3.02148 5.93584 3.02148 6.32901C3.02148 6.72218 3.35002 7.04083 3.75538 7.04083H8.13543C8.5406 7.04083 8.86932 6.72218 8.86932 6.32901C8.86932 5.93584 8.5406 5.61719 8.13543 5.61719Z" fill="#7C7C7C"/>
<path d="M8.13543 8.46484H3.75538C3.35002 8.46484 3.02148 8.7835 3.02148 9.17667C3.02148 9.56984 3.35002 9.88849 3.75538 9.88849H8.13543C8.5406 9.88849 8.86932 9.56984 8.86932 9.17667C8.86932 8.7835 8.5406 8.46484 8.13543 8.46484Z" fill="#7C7C7C"/>
<path d="M8.13543 11.3105H3.75538C3.35002 11.3105 3.02148 11.6292 3.02148 12.0224C3.02148 12.4155 3.35002 12.7342 3.75538 12.7342H8.13543C8.5406 12.7342 8.86932 12.4155 8.86932 12.0224C8.86932 11.6292 8.5406 11.3105 8.13543 11.3105Z" fill="#7C7C7C"/>
<path d="M8.13543 14.1602H3.75538C3.35002 14.1602 3.02148 14.4788 3.02148 14.8719C3.02148 15.2651 3.35002 15.5837 3.75538 15.5837H8.13543C8.5406 15.5837 8.86932 15.2651 8.86932 14.8719C8.86932 14.4788 8.5406 14.1602 8.13543 14.1602Z" fill="#7C7C7C"/>
<path d="M8.13543 17.0527H3.75538C3.35002 17.0527 3.02148 17.3716 3.02148 17.7645C3.02148 18.1577 3.35002 18.4763 3.75538 18.4763H8.13543C8.5406 18.4763 8.86932 18.1577 8.86932 17.7645C8.86932 17.3716 8.5406 17.0527 8.13543 17.0527Z" fill="#7C7C7C"/>
<path d="M10.6001 7.04083H14.9801C15.3855 7.04083 15.714 6.72218 15.714 6.32901C15.714 5.93584 15.3855 5.61719 14.9801 5.61719H10.6001C10.1949 5.61719 9.86621 5.93584 9.86621 6.32901C9.86621 6.72218 10.1949 7.04083 10.6001 7.04083Z" fill="#7C7C7C"/>
<path d="M10.6001 9.88849H14.9801C15.3855 9.88849 15.714 9.56984 15.714 9.17667C15.714 8.7835 15.3855 8.46484 14.9801 8.46484H10.6001C10.1949 8.46484 9.86621 8.7835 9.86621 9.17667C9.86621 9.56984 10.1949 9.88849 10.6001 9.88849Z" fill="#7C7C7C"/>
<path d="M13.4435 12.0224C13.4435 11.6292 13.115 11.3105 12.7097 11.3105H10.6001C10.1949 11.3105 9.86621 11.6292 9.86621 12.0224C9.86621 12.4155 10.1949 12.7342 10.6001 12.7342H12.7097C13.115 12.7342 13.4435 12.4155 13.4435 12.0224Z" fill="#7C7C7C"/>
<path d="M20.3962 17.3539C20.0801 17.1079 19.6183 17.157 19.3645 17.4636L17.4744 19.7492L16.3042 18.9269C15.976 18.6961 15.517 18.7673 15.2792 19.0856C15.0415 19.404 15.1149 19.8491 15.443 20.0797L17.1789 21.2996C17.3089 21.3908 17.4595 21.4351 17.6091 21.4351C17.8245 21.4351 18.0374 21.3433 18.1819 21.1685L20.5095 18.3545C20.7631 18.0479 20.7125 17.5999 20.3962 17.3539Z" fill="#7C7C7C"/>
<path d="M22.2509 15.169C21.2949 14.2255 20.0666 13.6309 18.7357 13.4557V3.80226C18.7357 2.22163 17.4097 0.935547 15.78 0.935547H2.95583C1.32598 0.935547 0 2.22163 0 3.80226V20.2913C0 21.8721 1.32598 23.1582 2.95564 23.1582H13.2701C14.4307 24.4806 16.0996 25.2321 17.9051 25.2321C21.2659 25.2321 24 22.5784 24 19.3165C24 17.7549 23.3789 16.282 22.2509 15.169ZM1.46778 20.2913V3.80226C1.46778 3.00666 2.13536 2.35917 2.95583 2.35917H15.78C16.6005 2.35917 17.2679 3.00666 17.2679 3.80226V13.4331C14.2054 13.7432 11.8101 16.2633 11.8101 19.3165C11.8101 20.1627 11.9921 20.9809 12.341 21.7344H2.95583C2.13536 21.7344 1.46778 21.0871 1.46778 20.2913ZM17.9051 23.8085C16.4394 23.8085 15.092 23.1558 14.2081 22.018C13.5996 21.2345 13.2777 20.3004 13.2777 19.3165C13.2777 16.8396 15.3536 14.8244 17.9051 14.8244C17.9291 14.8244 17.9534 14.8248 17.9775 14.8252L17.9888 14.8254C19.2068 14.8463 20.3487 15.3227 21.2041 16.1669C22.0605 17.012 22.5322 18.1307 22.5322 19.3165C22.5322 21.7934 20.4565 23.8085 17.9051 23.8085Z" fill="#7C7C7C"/>
</svg>
