<svg width="36" height="24" viewBox="0 0 36 24" fill="none" xmlns="http://www.w3.org/2000/svg">
<path d="M22.7736 0.0320691L22.8533 0.00355991H22.8026L22.7736 0.0320691Z" fill="white"/>
<path fill-rule="evenodd" clip-rule="evenodd" d="M12.9552 0.00116601C12.9552 0.00116601 8.85252 -0.150955 4.42626 3.01987C4.42626 3.01987 0 10.4934 0 19.7071C0 19.7071 2.45336 23.8431 9.18093 24C9.18093 24 10.1637 22.733 11.1562 21.6181C7.3771 20.5058 5.90649 18.2808 5.90649 18.2808C5.90649 18.2808 6.2349 18.4377 6.72751 18.7561H6.87238C6.91388 18.7561 6.94279 18.7672 6.96683 18.783C6.98369 18.7941 6.99822 18.8076 7.01304 18.8216L7.01967 18.8274V18.8418C7.0583 18.8797 7.09213 18.913 7.16702 18.913C15.2009 22.1221 21.9163 22.8638 29.5784 18.1143C29.5784 18.1143 28.1054 20.3393 24.1694 21.4518C24.9807 22.5595 26.1205 23.8287 26.1205 23.8287C31.6347 23.7119 34.3865 20.914 35.2818 20.0039L35.2831 20.0026C35.4796 19.8028 35.5863 19.6942 35.6129 19.726C35.6129 10.5267 31.1601 3.03902 31.1601 3.03902C27.1805 0.174615 23.4618 0.0462148 22.7591 0.0438209L22.31 0.478858C27.3931 1.90519 29.8537 4.13238 29.8537 4.13238C17.5066 -1.84954 7.16978 3.13369 5.61218 3.88472C5.49799 3.93978 5.431 3.97199 5.41387 3.97547C5.41387 3.97547 7.86971 1.59376 13.286 0.321948L12.9552 0.00116601ZM23.2878 16.8523C25.0047 16.8523 26.4028 15.4261 26.4028 13.6671C26.4028 11.92 25.0119 10.4936 23.2878 10.4936V10.5008C21.5782 10.5008 20.1776 11.9223 20.1728 13.6812C20.1728 15.4261 21.5709 16.8523 23.2878 16.8523ZM15.2517 13.6671C15.2517 15.4261 13.8535 16.8523 12.1366 16.8523C10.4197 16.8523 9.02159 15.4261 9.02159 13.6812C9.02159 11.9223 10.4197 10.5008 12.1366 10.5008L12.1463 10.4936C13.8632 10.4936 15.2517 11.92 15.2517 13.6671Z" fill="white"/>
</svg>
