<svg width="22" height="15" viewBox="0 0 22 15" fill="none" xmlns="http://www.w3.org/2000/svg">
<path fill-rule="evenodd" clip-rule="evenodd" d="M11.1614 15C17.7568 15 21.4004 9.03561 22 7.52226C21.5388 5.78635 17.3417 0 11.1614 0C4.10482 0 0.461216 5.78635 0 7.52226C0.368973 8.90208 3.82809 15 11.1614 15ZM15.9581 7.47775C15.9581 10.1326 13.7279 12.2849 10.9769 12.2849C8.22594 12.2849 5.99581 10.1326 5.99581 7.47775C5.99581 4.82285 8.22594 2.67062 10.9769 2.67062C13.7279 2.67062 15.9581 4.82285 15.9581 7.47775ZM13.7442 7.47775C13.7442 8.95269 12.5053 10.1484 10.9769 10.1484C9.4486 10.1484 8.20964 8.95269 8.20964 7.47775C8.20964 6.0028 9.4486 4.80712 10.9769 4.80712C12.5053 4.80712 13.7442 6.0028 13.7442 7.47775Z" fill="black"/>
</svg>
