<svg width="93" height="81" viewBox="0 0 93 81" fill="none" xmlns="http://www.w3.org/2000/svg">
<path d="M69.282 0.94922L92.376 40.9492L69.282 80.9492H23.094L0 40.9492L23.094 0.949219L69.282 0.94922Z" fill="#4E5FF7"/>
<path d="M46.8619 20.1942L42.223 22.4847C41.8344 22.6766 41.5802 23.06 41.5577 23.4885C41.5506 23.6233 41.4622 25.4569 41.7226 28.2084H30.7462C29.599 28.2084 28.669 29.1278 28.669 30.262C28.669 31.3962 29.599 32.3156 30.7462 32.3156H42.3072C42.5474 33.5724 42.8608 34.9071 43.2689 36.2806C43.2731 36.2946 43.2772 36.3086 43.2814 36.3226H30.7462C29.599 36.3226 28.669 37.2421 28.669 38.3763C28.669 39.5104 29.599 40.4299 30.7462 40.4299H44.7822C45.4065 41.8514 46.1148 43.189 46.9039 44.4369H30.7462C29.599 44.4369 28.669 45.3564 28.669 46.4906C28.669 47.6247 29.599 48.5442 30.7462 48.5442H50.1011C52.6579 51.2167 55.7415 53.241 59.2967 54.5771C59.435 54.629 59.5803 54.6549 59.7258 54.6549C59.8714 54.6549 60.0167 54.629 60.155 54.5771C60.858 54.3129 61.5426 54.0218 62.2084 53.7041V57.2595C62.2084 60.0258 59.9401 62.2683 57.142 62.2683H30.7968C27.9988 62.2683 25.7305 60.0258 25.7305 57.2595V25.2031C25.7305 22.4368 27.9988 20.1942 30.7968 20.1942H46.8619Z" fill="white"/>
<path d="M50.3487 28.0285C50.4897 29.6961 50.8135 31.9803 51.5461 34.3788C53.1021 39.4722 55.8509 43.0939 59.7203 45.1521C63.5897 43.0939 66.3384 39.4722 67.8944 34.3788C68.627 31.9805 68.9507 29.6962 69.0919 28.0285L59.7203 23.3959L50.3487 28.0285Z" fill="white"/>
<path d="M75.454 24.8288C75.4345 24.4573 75.2144 24.1249 74.8778 23.9586L60.1877 16.6969C59.8935 16.5515 59.5473 16.5515 59.2531 16.6969L44.563 23.9586C44.2265 24.1249 44.0063 24.4573 43.9868 24.8288C43.9757 25.0403 43.7341 30.0746 45.4688 35.9195C46.4952 39.3778 48.0049 42.3983 49.956 44.8972C52.4148 48.0461 55.5749 50.3626 59.3488 51.7824C59.4685 51.8274 59.5944 51.8499 59.7204 51.8499C59.8464 51.8499 59.9723 51.8274 60.0921 51.7824C63.8659 50.3626 67.0261 48.0461 69.4848 44.8972C71.4359 42.3983 72.9456 39.3777 73.9721 35.9195C75.7067 30.0746 75.4651 25.0403 75.454 24.8288ZM60.1835 47.2405C60.0376 47.3119 59.879 47.3475 59.7204 47.3475C59.5619 47.3475 59.4032 47.3119 59.2573 47.2405C54.6044 44.9661 51.3369 40.8397 49.5458 34.9762C48.6499 32.0434 48.3265 29.2799 48.2129 27.4781C48.1868 27.0643 48.4135 26.6753 48.7885 26.4899L59.2532 21.317C59.5474 21.1717 59.8936 21.1716 60.1878 21.317L70.6525 26.4899C71.0276 26.6752 71.2542 27.0644 71.2281 27.4782C71.1145 29.2801 70.7911 32.0437 69.8952 34.9762C68.1039 40.8397 64.8364 44.966 60.1835 47.2405Z" fill="white"/>
</svg>
