<svg width="88" height="81" viewBox="0 0 88 81" fill="none" xmlns="http://www.w3.org/2000/svg">
<path d="M65.8846 0.94922L87.8461 40.9492L65.8846 80.9492H21.9615L0 40.9492L21.9615 0.949219L65.8846 0.94922Z" fill="#4E5FF7"/>
<path d="M50.2243 18.542L43.5236 14.9902L25.166 24.7208C26.9018 36.5281 26.4834 41.331 25.166 49.152C25.3037 49.3648 25.44 49.5758 25.575 49.7849C25.6425 49.8894 25.7097 49.9934 25.7767 50.097L26.9327 48.9254C26.842 48.7847 26.7506 48.6432 26.6585 48.5006C27.8688 41.3079 28.2532 36.8907 26.6585 26.0319L43.5236 17.0828L48.3167 19.6262C48.902 19.1435 49.5464 18.7854 50.2243 18.542Z" fill="white"/>
<path d="M58.2767 34.2466L44.2699 49.5294V62.7334C52.0364 58.8311 54.7717 54.6008 58.7483 48.4509L58.7507 48.4472C58.8645 48.2712 58.9793 48.0937 59.0952 47.9145C58.2826 43.0948 57.8732 39.6277 58.2767 34.2466Z" fill="white"/>
<path d="M44.2699 31.3548L50.4626 25.0786L50.6736 25.0327L46.8915 21.0556L47.085 20.8521L44.2699 19.3614V31.3548Z" fill="white"/>
<path d="M42.7774 32.8674V19.3614L27.952 27.2119C29.4224 37.2037 29.0704 41.2762 27.9565 47.8878L42.7774 32.8674Z" fill="white"/>
<path d="M36.1435 58.3961L42.7774 51.1579V62.7334C40.0285 61.3523 37.9099 59.93 36.1435 58.3961Z" fill="white"/>
<path d="M35.1204 59.5124L33.9781 60.7587C36.3911 63.0188 39.3565 65.0645 43.4739 67.0482L43.4739 67.096L43.5236 67.0721L43.5734 67.096L43.5733 67.0482C53.3696 62.3285 56.6452 57.2576 61.4722 49.7849C61.6073 49.5758 61.7436 49.3648 61.8812 49.152C61.0618 44.287 60.5901 40.5898 60.7685 35.6481L59.4595 34.2717C59.0967 39.7717 59.5393 43.4526 60.3887 48.5006C60.2623 48.6964 60.1371 48.8904 60.013 49.0827C55.5784 55.9552 52.5691 60.6188 43.5693 64.9594L43.5693 65.0034L43.5236 64.9814L43.4779 65.0034L43.478 64.9594C39.901 63.2343 37.2703 61.4581 35.1204 59.5124Z" fill="white"/>
<path fill-rule="evenodd" clip-rule="evenodd" d="M21.8791 55.765L19.1602 66.6151V66.6518H19.1951L29.513 63.7927L57.5853 33.163L58.0075 31.0175L62.5103 35.7525C64.9019 33.237 64.4451 28.7609 61.9826 26.1715L67.9629 19.8828C69.2522 18.527 69.1263 16.7711 67.8921 15.4436L67.8923 15.4434C67.8865 15.4373 67.8806 15.4312 67.8748 15.4251C67.869 15.419 67.8632 15.4128 67.8574 15.4067L67.8572 15.4069C66.5948 14.1091 64.925 13.9766 63.6357 15.3324L57.6554 21.6211C55.1929 19.0317 50.9363 18.5513 48.5442 21.0662L53.047 25.8013L51.0067 26.2452L21.8791 55.765ZM66.8008 16.4426L61.4893 22.0285H59.3784L64.1979 16.9605C65.0777 16.0354 65.9566 15.5548 66.8008 16.4426ZM60.169 28.5629V23.4373H55.2947V28.5629H60.169ZM28.7031 55.6172L24.6221 55.3952L50.2673 29.3158L49.9155 33.3109L28.7031 55.6172ZM21.421 64.2365L28.2457 62.461L28.2807 57.0231H23.0744L21.421 64.2365Z" fill="white"/>
</svg>
