<svg width="30" height="28" viewBox="0 0 30 28" fill="none" xmlns="http://www.w3.org/2000/svg">
<path d="M1.97107 18.639V11.7402H1.4783C0.661859 11.7402 0 12.4021 0 13.2185V17.1607C0 17.9771 0.661859 18.639 1.4783 18.639H1.97107Z" fill="#7C7C7C"/>
<path d="M25.6216 10.2598H23.6506C23.1063 10.2598 22.665 10.701 22.665 11.2453V19.1296C22.665 19.6739 23.1063 20.1151 23.6506 20.1151H25.6216C26.1659 20.1151 26.6072 19.6739 26.6072 19.1296V11.2453C26.6072 10.701 26.1659 10.2598 25.6216 10.2598Z" fill="#7C7C7C"/>
<path d="M28.0855 11.7402H27.5928V18.639H28.0855C28.902 18.639 29.5638 17.9771 29.5638 17.1607V13.2185C29.5638 12.4021 28.902 11.7402 28.0855 11.7402Z" fill="#7C7C7C"/>
<path d="M6.03766 9.2774C6.75684 5.00737 10.4541 1.88074 14.7843 1.88074C19.1145 1.88074 22.8117 5.00737 23.5309 9.2774H25.502C24.7256 3.95035 20.1578 0 14.7744 0C9.3911 0 4.82327 3.95035 4.04688 9.2774H6.01795H6.03766Z" fill="#7C7C7C"/>
<path d="M3.94354 20.1151H4.43631V22.579C4.43631 25.0283 6.42189 27.0139 8.87122 27.0139H10.931C11.1393 27.6031 11.6956 27.9977 12.3206 27.9994H17.2483C18.0647 27.9994 18.7266 27.3375 18.7266 26.5211C18.7266 25.7047 18.0647 25.0428 17.2483 25.0428H12.3206C11.6956 25.0446 11.1393 25.4391 10.931 26.0283H8.87122C6.96618 26.0283 5.42185 24.484 5.42185 22.579V20.1151H5.91461C6.45891 20.1151 6.90015 19.6739 6.90015 19.1296V11.2453C6.90015 10.701 6.45891 10.2598 5.91461 10.2598H3.94354C3.39925 10.2598 2.95801 10.701 2.95801 11.2453V19.1296C2.95801 19.6739 3.39925 20.1151 3.94354 20.1151Z" fill="#7C7C7C"/>
</svg>
