<svg width="15" height="20" viewBox="0 0 15 20" fill="none" xmlns="http://www.w3.org/2000/svg">
<path d="M14.394 8.20113H13.3577V5.8438C13.3577 2.87246 10.73 0.455078 7.50013 0.455078C4.2702 0.455078 1.64238 2.87246 1.64238 5.8438V8.20113H0.606C0.271267 8.20113 0 8.45068 0 8.75857V19.2144C0 19.5223 0.271267 19.7719 0.606 19.7719H14.3941C14.7287 19.7719 15 19.5223 15 19.2144V8.75857C14.9999 8.45068 14.7287 8.20113 14.394 8.20113ZM8.44484 14.5647V16.7906C8.44484 16.985 8.27352 17.1427 8.06213 17.1427H6.93782C6.72648 17.1427 6.55511 16.9851 6.55511 16.7906V14.5647C6.13703 14.292 5.864 13.8437 5.864 13.3364C5.864 12.5053 6.59642 11.8314 7.49997 11.8314C8.40342 11.8314 9.13585 12.5053 9.13585 13.3364C9.1359 13.8437 8.86287 14.292 8.44484 14.5647ZM10.561 8.20113H4.43905V5.8438C4.43905 4.29107 5.81224 3.02789 7.50013 3.02789C9.18791 3.02789 10.561 4.29107 10.561 5.8438V8.20113Z" fill="#7C7C7C"/>
</svg>
