<svg width="57" height="85" viewBox="0 0 57 85" fill="none" xmlns="http://www.w3.org/2000/svg">
<path d="M22.8061 19.4375C22.4423 19.3795 22.1905 19.3504 21.7987 19.2924L8.03109 33.5449L18.1609 44.1109C18.7486 43.9077 19.56 44.1399 19.4761 44.8366L21.8826 40.1051C20.8473 41.1791 20.0637 42.2822 19.2243 42.2822C19.0843 42.2822 18.9724 42.2241 18.8885 42.137L12.2845 35.2285V31.8323L25.8842 17.7539C24.9048 18.3925 23.9534 19.0892 22.8061 19.4375Z" fill="white"/>
<path d="M10.1019 25.4172L8.53483 26.8976V28.7263L7.6114 31.1066L15.1668 23.182H6.18426C9.15045 23.5304 11.585 23.9949 10.1019 25.4172Z" fill="white"/>
<path d="M30.4734 49.51C30.0817 49.8874 29.7739 49.8293 29.55 49.2778V42.4853L29.4101 42.1951L29.578 40.6567C29.1582 39.931 28.8224 38.7118 28.5146 37.3765C28.5706 38.4215 28.5986 39.4374 28.4027 40.1631C28.4027 40.1922 28.3747 40.2503 28.3747 40.2793L27.3953 42.1661L27.2554 42.4563V49.2488C27.0315 49.8003 26.7237 49.8293 26.332 49.481L24.7089 47.5071C26.332 50.0325 27.2834 52.2096 27.843 54.2125C28.1229 55.2575 28.3187 56.2734 28.4307 57.2313C28.5426 56.2734 28.7105 55.2865 29.0183 54.2125C29.578 52.2096 30.5294 50.0325 32.1524 47.5071L30.4734 49.51Z" fill="white"/>
<path d="M36.9095 48.6973L28.4027 28.2329L19.8959 48.6973L0 27.8846C0.867471 29.423 1.17528 29.9455 1.67898 31.3679C1.87486 32.558 1.93083 34.0384 1.93083 34.9672L9.01051 42.7756C8.47883 41.5274 9.23437 41.2372 9.65411 41.6726L19.1403 51.5709C19.2802 51.7161 19.3362 51.9774 19.2523 52.1806C19.0844 52.5579 18.6087 52.5289 17.965 52.2386L26.3879 59.5245L25.8003 58.7407L26.1361 59.0601L22.918 52.8482V47.7103L28.3747 34.5318L28.4027 34.3867L28.4307 34.5318L33.8873 47.7103V52.8482L30.6693 59.0601L31.0051 58.7407L30.4175 59.5245L38.8403 52.2386C38.1687 52.5289 37.721 52.5579 37.5531 52.1806C37.4692 51.9774 37.5251 51.7451 37.665 51.5709L47.1512 41.6726C47.571 41.2372 48.3265 41.5274 47.7948 42.7756L54.9025 34.9672C54.9025 34.0384 54.9585 32.587 55.1544 31.3679C55.6581 29.9455 55.9659 29.423 56.8333 27.8846L36.9095 48.6973ZM22.3024 54.5317L20.7913 52.7611L22.3024 49.1036V54.5317ZM34.503 54.5317V49.1036L36.014 52.7611L34.503 54.5317Z" fill="white"/>
<path d="M38.6445 44.14L48.7743 33.5739L35.0067 19.3214C34.6149 19.3795 34.3631 19.4085 33.9993 19.4666C32.852 19.1183 31.9006 18.4216 30.9492 17.783L44.5489 31.8613V35.2575L37.9449 42.1661C37.8609 42.2532 37.721 42.3112 37.6091 42.3112C36.7696 42.3112 35.9581 41.2082 34.9507 40.1341L37.3573 44.8656C37.2453 44.169 38.0568 43.9368 38.6445 44.14Z" fill="white"/>
<path d="M50.5931 23.1531H41.6106L49.166 31.0776L48.2426 28.6973V26.8686L46.6755 25.3882C45.2204 23.9948 47.6829 23.5304 50.5931 23.1531Z" fill="white"/>
<path d="M23.5336 14.5319C23.7015 14.3577 23.9254 14.1835 24.1493 14.0384C26.164 12.9934 28.0389 15.1415 22.946 18.3635L26.4718 16.4477L27.1714 16.9411V27.4491C27.3113 27.8555 27.3393 28.349 27.3393 28.8715C27.5072 26.8395 28.6825 26.317 28.9623 26.0848C28.9064 24.9817 29.2142 24.169 29.6619 23.4433V16.9411L30.3615 16.4477L33.8873 18.3635C28.7664 15.1705 30.6693 13.0224 32.6841 14.0384C32.9079 14.1545 33.1038 14.3287 33.2997 14.5319L39.7358 21.2082H52.5519L49.0261 20.3084L47.7389 18.6828L40.6872 18.7409L30.9771 8.55221C30.8372 8.31999 30.6973 8.11683 30.6133 7.85558C30.4734 7.56531 30.3895 7.30406 30.3335 6.98476C30.3335 6.95573 30.3055 6.89763 30.3055 6.86861C30.2216 6.83958 30.1376 6.78152 30.0537 6.72347C29.6899 6.46222 29.466 5.93971 29.3821 5.185C29.2981 4.86569 29.1862 4.51741 29.1302 4.14005C28.9343 3.15311 28.7665 2.07907 28.6545 0.917969C28.7105 2.31129 28.0669 3.47242 27.7311 4.14005C27.6192 4.25616 27.5632 4.40131 27.4792 4.51742C27.3673 5.47533 27.1714 6.25903 26.8076 6.72347C26.7237 6.83958 26.6398 6.9267 26.5558 6.98476C26.4719 7.04281 26.4159 7.07181 26.3319 7.10084L26.276 7.85558L26.248 8.17484L25.9122 8.55221L16.2021 18.7409L9.15042 18.6828L7.8632 20.3084L4.33736 21.2082H17.1535L23.5336 14.5319ZM28.7665 9.85845L30.4454 11.8323L28.7665 13.8062V9.85845ZM28.0389 9.85845V13.8062L26.3599 11.8323L28.0389 9.85845Z" fill="white"/>
<path d="M13.9075 31.9774V34.8512L19.8399 41.2081V35.1995C19.672 36.4767 18.8605 36.854 18.2449 36.3315L16.2301 34.2416V32.6741L18.6366 30.0616L25.7723 30.0906C24.597 27.1008 24.7929 23.5594 25.7723 19.6407L13.9075 31.9774ZM23.7015 27.9135H20.7353L23.7015 24.8367V27.9135Z" fill="white"/>
<path d="M38.8403 35.4607C39.344 35.9832 39.5399 36.3316 39.1201 37.7539C39.8197 36.9121 40.3234 36.796 40.967 37.1734L43.5134 34.4157C43.5974 34.0674 43.7653 33.7771 43.9332 33.5159C43.4295 33.9222 42.8698 34.2705 42.1703 34.5028C41.5267 34.735 40.995 34.648 40.5752 34.2706L36.8255 30.0616H41.023L30.9771 19.6407C31.9565 23.5304 32.1524 27.1008 30.9771 30.0906V31.1356L33.1038 36.1574L33.0478 30.0906H34.0272L38.8403 35.4607ZM33.1038 27.9135V24.8367L36.07 27.9135H33.1038Z" fill="white"/>
<path d="M9.09007 67.5542C9.09007 66.5791 8.70477 66.0166 7.89913 65.8291V65.2666C9.65053 64.2165 10.5613 63.6915 10.5613 63.6915C10.7014 63.6915 10.9816 63.8789 11.3319 64.2165C11.7172 64.554 11.9274 64.929 12.0324 65.304C12.0675 65.2665 12.5579 65.004 13.5386 64.479C14.5194 63.9539 15.0098 63.6915 15.0098 63.6915C15.3251 63.6915 15.7104 63.9165 16.0957 64.329C16.8313 65.1166 17.2166 66.2041 17.2166 67.5542V81.4679C17.2166 81.618 16.3409 82.068 14.5895 82.8181C12.8381 83.5682 11.7522 83.9057 11.3319 83.9057C10.5613 83.9057 9.93075 83.3806 9.40533 82.293C7.6189 83.3806 6.46297 83.9057 6.00761 83.9057C5.51721 83.9057 5.06185 83.5306 4.60648 82.7806C4.15112 82.0305 3.94094 81.3554 3.94094 80.7179V67.5542C3.94094 66.5791 3.55565 66.0166 2.75 65.8291V65.2666L5.41212 63.6539C5.76241 63.8039 6.11269 64.0665 6.42795 64.4415C6.7432 64.8166 6.88331 65.1165 6.88331 65.4165V78.7677C6.88331 80.4179 7.37369 81.2429 8.31945 81.2429C8.56465 81.2429 8.80985 81.2054 9.09007 81.0929V67.5542ZM12.3827 80.6054C12.5929 81.0929 12.8731 81.318 13.2234 81.318C13.5737 81.318 13.9239 81.2429 14.2392 81.0929V68.4918C14.2392 67.5917 14.0641 66.9917 13.7138 66.6542C13.3635 66.3542 12.8031 66.2041 12.0324 66.1666V79.0302C12.0675 79.6303 12.1725 80.1553 12.3827 80.6054Z" fill="white"/>
<path d="M21.8403 66.2416C21.6651 66.2416 21.525 66.3167 21.3849 66.5042V73.4423H24.8527V74.0798L23.6267 74.7174H21.3849V77.3426C21.3849 79.2928 21.5601 80.4179 21.9103 80.7554C22.4358 81.243 23.0312 81.543 23.6617 81.5805C24.2922 81.6555 24.9928 81.693 25.7284 81.693V82.4431C25.6583 82.4431 25.0278 82.6681 23.9069 83.1556C22.786 83.6431 22.0855 83.8681 21.8403 83.8681C21.3499 83.8681 20.6493 83.4556 19.7386 82.593C18.8629 81.768 18.4075 80.8304 18.4075 79.8553V66.0541C18.4075 65.9416 19.3533 65.4915 21.2098 64.7415C23.0663 63.9914 24.1521 63.6164 24.4323 63.6164C24.5374 63.6164 24.6425 63.8789 24.7826 64.3664C24.9227 64.8915 25.0629 65.4916 25.238 66.2042C25.4131 66.9167 25.5883 67.4417 25.7634 67.7793C25.9386 68.1168 26.3239 68.3043 26.8143 68.3043V68.8294C26.464 69.0169 25.8335 69.3169 24.9928 69.767C24.1171 70.217 23.6617 70.442 23.5917 70.442C23.3465 70.442 23.0312 69.7294 22.6459 68.3043C22.3657 66.9542 22.0855 66.2416 21.8403 66.2416Z" fill="white"/>
<path d="M27.76 81.2429V67.6293C27.76 66.5792 27.4098 65.9416 26.7442 65.8291V65.2666L29.2312 63.7664C29.5465 63.9165 29.8968 64.1415 30.212 64.5165C30.5273 64.8915 30.7024 65.2291 30.7024 65.5291C32.4888 64.3665 33.5397 63.7664 33.7849 63.7664C34.0301 63.7664 34.4504 64.1414 35.0109 64.854C35.5713 65.5666 35.8515 66.2041 35.8515 66.8041V74.1924C35.8515 74.3424 34.9758 74.7924 33.1894 75.5424C33.925 78.2426 34.8357 80.0803 35.8515 81.0179C36.3069 81.4305 36.7623 81.6179 37.2527 81.6179V82.4055C35.7465 83.4556 34.7657 83.9432 34.3453 83.9432C33.8199 83.9432 33.1193 82.8555 32.3137 80.6803C31.473 78.5052 31.0527 77.08 30.9826 76.3675L30.7024 76.4426V79.8928C30.7024 80.5304 30.7725 81.0179 30.9126 81.2804C31.0527 81.5429 31.2979 81.693 31.7182 81.693V82.5181L26.7092 84.7682L26.3239 83.9432C26.6742 83.9432 27.0245 83.7182 27.3397 83.2681C27.62 82.7806 27.76 82.143 27.76 81.2429ZM31.6482 66.2791C31.3679 66.2791 31.0527 66.4292 30.7024 66.6542V75.1674C31.1227 75.1674 31.6131 75.0174 32.1385 74.7174C32.664 74.4173 32.9092 74.1174 32.9092 73.8173V68.1918C32.9092 66.9167 32.4888 66.2791 31.6482 66.2791Z" fill="white"/>
<path d="M37.743 80.0803V66.1292C37.743 66.0167 38.6888 65.5666 40.5452 64.8166C42.4017 64.0665 43.4876 63.6915 43.7678 63.6915C44.048 63.6915 44.4684 64.0665 45.0289 64.779C45.5893 65.4916 45.8695 66.1291 45.8695 66.7292V81.4679C45.8695 81.618 44.9588 82.068 43.1723 82.7806C41.3859 83.5306 40.3001 83.9057 39.8797 83.9057C39.4944 83.9057 39.039 83.5306 38.5136 82.7806C37.9882 82.0305 37.743 81.1304 37.743 80.0803ZM41.9113 81.5055C42.2266 81.5055 42.5419 81.3554 42.8571 81.0929V68.1168C42.8571 66.8042 42.4368 66.1666 41.5961 66.1666C41.2808 66.1666 40.9656 66.2791 40.6503 66.5416V79.5552C40.6854 80.8679 41.1057 81.5055 41.9113 81.5055Z" fill="white"/>
<path d="M49.4424 81.2429V67.3292L50.213 66.5416H48.6718C47.691 66.5416 47.0955 66.8417 46.9905 67.4042H46.465L45.0639 65.2666C45.2741 64.929 45.5193 64.629 45.8345 64.3664C46.1498 64.1039 46.43 63.9914 46.7453 63.9914H53.2254C54.2062 63.9914 54.8017 63.6915 54.9068 63.1289H55.4322L56.8333 65.2666C56.6232 65.6041 56.378 65.9041 56.0627 66.1666C55.7475 66.4291 55.4672 66.5416 55.152 66.5416H52.4198V79.8928C52.4198 80.5304 52.4899 81.0179 52.63 81.2804C52.7701 81.5429 53.0153 81.693 53.4356 81.693V82.5181L48.4266 84.7682L48.0413 83.9432C48.3916 83.9432 48.7419 83.7182 49.0571 83.2681C49.3023 82.7806 49.4424 82.143 49.4424 81.2429Z" fill="white"/>
</svg>
