<svg width="33" height="36" viewBox="0 0 33 36" fill="none" xmlns="http://www.w3.org/2000/svg">
<path d="M25.3523 35.2739H6.98112C4.75159 35.2739 2.93945 33.4618 2.93945 31.2323V11.3913C2.93945 10.7829 3.43327 10.2891 4.04173 10.2891H28.2917C28.9002 10.2891 29.394 10.7829 29.394 11.3913V31.2323C29.394 33.4618 27.5819 35.2739 25.3523 35.2739ZM5.144 12.4936V31.2323C5.144 32.2449 5.9685 33.0694 6.98112 33.0694H25.3523C26.365 33.0694 27.1895 32.2449 27.1895 31.2323V12.4936H5.144Z" fill="#404040"/>
<path d="M31.2311 12.4935H1.10227C0.493818 12.4935 0 11.9997 0 11.3912V8.45183C0 6.22229 1.81214 4.41016 4.04167 4.41016H28.2917C30.5212 4.41016 32.3334 6.22229 32.3334 8.45183V11.3912C32.3334 11.9997 31.8395 12.4935 31.2311 12.4935ZM2.20455 10.2889H30.1288V8.45183C30.1288 7.4392 29.3043 6.6147 28.2917 6.6147H4.04167C3.02905 6.6147 2.20455 7.4392 2.20455 8.45183V10.2889Z" fill="#404040"/>
<path d="M20.9434 6.61364H11.3904C10.7819 6.61364 10.2881 6.11982 10.2881 5.51137V2.57197C10.2881 1.15371 11.4418 0 12.8601 0H19.4737C20.892 0 22.0457 1.15371 22.0457 2.57197V5.51137C22.0457 6.11982 21.5519 6.61364 20.9434 6.61364ZM12.4926 4.40909H19.8411V2.57197C19.8411 2.36915 19.6765 2.20455 19.4737 2.20455H12.8601C12.6572 2.20455 12.4926 2.36915 12.4926 2.57197V4.40909Z" fill="#404040"/>
<path d="M9.92063 29.3952C9.31218 29.3952 8.81836 28.9014 8.81836 28.293V17.2702C8.81836 16.6618 9.31218 16.168 9.92063 16.168C10.5291 16.168 11.0229 16.6618 11.0229 17.2702V28.293C11.0229 28.9014 10.5291 29.3952 9.92063 29.3952Z" fill="#404040"/>
<path d="M16.1667 29.3952C15.5583 29.3952 15.0645 28.9014 15.0645 28.293V17.2702C15.0645 16.6618 15.5583 16.168 16.1667 16.168C16.7752 16.168 17.269 16.6618 17.269 17.2702V28.293C17.269 28.9014 16.7752 29.3952 16.1667 29.3952Z" fill="#404040"/>
<path d="M22.4128 29.3952C21.8044 29.3952 21.3105 28.9014 21.3105 28.293V17.2702C21.3105 16.6618 21.8044 16.168 22.4128 16.168C23.0213 16.168 23.5151 16.6618 23.5151 17.2702V28.293C23.5151 28.9014 23.0213 29.3952 22.4128 29.3952Z" fill="#404040"/>
</svg>
