<svg width="15" height="15" viewBox="0 0 15 15" fill="none" xmlns="http://www.w3.org/2000/svg">
<path d="M12.9668 1.83724H14.1916C14.5296 1.83724 14.804 2.1116 14.804 2.44965C14.804 2.7877 14.5296 3.06206 14.1916 3.06206L12.9668 3.04032V4.28689C12.9668 4.62494 12.6924 4.8993 12.3544 4.8993C12.0163 4.8993 11.7419 4.62494 11.7419 4.28689L11.7637 3.04032L10.5171 3.06206C10.1791 3.06206 9.9047 2.7877 9.9047 2.44965C9.9047 2.1116 10.1791 1.83724 10.5171 1.83724H11.7637L11.7419 0.612412C11.7419 0.274361 12.0163 0 12.3544 0C12.6924 0 12.9668 0.274361 12.9668 0.612412V1.83724Z" fill="#4F4F4F"/>
<path fill-rule="evenodd" clip-rule="evenodd" d="M12.7689 7.22669V12.5466C12.7689 13.6246 11.8922 14.5 10.8155 14.5H1.95341C0.875443 14.5 0 13.6246 0 12.5466V3.68575C0 2.60773 0.876684 1.73233 1.95341 1.73233H7.61459L7.59961 1.85216C7.57503 2.04884 7.56216 2.24776 7.56216 2.45135C7.56216 2.472 7.56245 2.49218 7.56275 2.51322C7.56304 2.53393 7.56336 2.55586 7.56336 2.57814V2.68474H1.95341C1.401 2.68474 0.951215 3.13468 0.951215 3.68575V9.83109L3.76513 6.70451L7.87366 10.4389L10.0762 8.60419L11.8165 10.0536V7.21557L11.932 7.22528C12.0719 7.23704 12.2124 7.24405 12.3549 7.24405C12.4562 7.24405 12.5564 7.24169 12.6548 7.23474L12.7689 7.22669ZM12.6618 12.5441V7.34111L12.6623 12.5466C12.6623 13.5657 11.8333 14.3934 10.8155 14.3934H1.95341C1.03782 14.3934 0.276704 13.7253 0.131551 12.8505C0.277738 13.724 1.03827 14.3909 1.953 14.3909H10.815C11.8329 14.3909 12.6618 13.5632 12.6618 12.5441ZM0.84461 10.1059V3.68575C0.84461 3.07572 1.3422 2.57814 1.95341 2.57814H7.45675C7.45675 2.55661 7.45645 2.53568 7.45615 2.51475L7.45563 2.47153L7.45555 2.45135C7.45555 2.27995 7.46448 2.11179 7.48166 1.94554C7.48534 1.90993 7.4894 1.87439 7.49383 1.83894C7.46891 2.03907 7.45514 2.24159 7.45514 2.44885C7.45514 2.47038 7.45544 2.49131 7.45574 2.51225C7.45604 2.53318 7.45633 2.55411 7.45633 2.57564H1.953C1.34178 2.57564 0.844194 3.07323 0.844194 3.68325L0.84461 10.1059ZM7.84722 11.6999L3.8329 8.05179L0.951215 11.2526V12.5466C0.951215 13.0999 1.40085 13.5476 1.95341 13.5476H10.8143C11.3667 13.5476 11.8165 13.0977 11.8165 12.5466V11.2928L10.0762 9.84335L7.84722 11.6999ZM10.0763 9.70461L11.9226 11.2425V11.2403L10.0758 9.70211L7.84986 11.5561L3.82492 7.89837L0.844194 11.2092V12.5441C0.844194 12.6069 0.849432 12.6685 0.859494 12.7285C0.849704 12.6693 0.84461 12.6086 0.84461 12.5466V11.2117L3.82534 7.90087L7.85027 11.5586L10.0763 9.70461Z" fill="#4F4F4F"/>
<path fill-rule="evenodd" clip-rule="evenodd" d="M10.9208 5.53013C10.9208 6.60747 10.0444 7.48316 8.96773 7.48316C7.89041 7.48316 7.0147 6.60745 7.0147 5.53013C7.0147 4.45279 7.89105 3.5771 8.96773 3.5771C10.045 3.5771 10.9208 4.45281 10.9208 5.53013ZM9.96898 5.53074C9.96898 4.97847 9.51947 4.52949 8.96773 4.52949C8.41542 4.52949 7.96648 4.97843 7.96648 5.53074C7.96648 6.08305 8.41542 6.53199 8.96773 6.53199C9.52004 6.53199 9.96898 6.08305 9.96898 5.53074ZM10.8142 5.53013C10.8142 5.68459 10.7951 5.83467 10.7592 5.97814C10.7948 5.83517 10.8137 5.68566 10.8137 5.5318C10.8137 4.51335 9.98576 3.68537 8.96731 3.68537C8.10385 3.68537 7.37657 4.28125 7.17584 5.08379C7.37598 4.28041 8.10367 3.68371 8.96773 3.68371C9.98617 3.68371 10.8142 4.51169 10.8142 5.53013ZM7.85946 5.53241C7.85946 5.44019 7.87077 5.35059 7.89207 5.2649C7.87104 5.35008 7.85988 5.43913 7.85988 5.53074C7.85988 6.14193 8.35654 6.6386 8.96773 6.6386C9.4867 6.6386 9.9231 6.2805 10.043 5.79826C9.9237 6.28134 9.48688 6.64026 8.96731 6.64026C8.35613 6.64026 7.85946 6.1436 7.85946 5.53241Z" fill="#4F4F4F"/>
</svg>
