<svg width="18" height="18" viewBox="0 0 18 18" fill="none" xmlns="http://www.w3.org/2000/svg">
<path d="M12.0206 2.05941C9.27458 -0.68647 4.80516 -0.68647 2.0591 2.05941C-0.686366 4.80588 -0.686366 9.27441 2.0591 12.0209C4.50454 14.4656 8.31319 14.7275 11.0575 12.8185C11.1152 13.0917 11.2474 13.3525 11.4599 13.565L15.459 17.5638C16.0418 18.1454 16.9835 18.1454 17.5634 17.5638C18.1455 16.9817 18.1455 16.04 17.5634 15.4596L13.5642 11.4596C13.3529 11.2488 13.0916 11.1161 12.8183 11.0584C14.7286 8.31368 14.4667 4.50588 12.0206 2.05941ZM10.758 10.7584C8.70786 12.8084 5.37128 12.8084 3.3217 10.7584C1.27272 8.70833 1.27272 5.37256 3.3217 3.32253C5.37128 1.27309 8.70786 1.27309 10.758 3.32253C12.8082 5.37256 12.8082 8.70833 10.758 10.7584Z" fill="#7C7C7C"/>
</svg>
