<svg width="26" height="26" viewBox="0 0 26 26" fill="none" xmlns="http://www.w3.org/2000/svg">
<path d="M25.2263 15.7441C27.1073 7.29273 19.7025 -0.384879 11.0066 1.08896C6.28575 -1.84033 0 1.46987 0 7.08605C0 8.39216 0.360392 9.61495 0.987019 10.6689C-0.760827 19.1397 6.70458 26.707 15.3929 25.1325C21.5348 28.3799 28.3216 21.9035 25.2263 15.7441ZM16.9601 20.8408C14.6787 21.779 10.9243 21.7844 8.65265 20.5952C5.41345 18.8681 4.83769 14.9801 7.63208 14.9801C9.73815 14.9801 9.07148 17.4354 11.1981 18.4364C12.1743 18.8876 14.2728 18.9341 15.4925 18.1117C16.6971 17.3056 16.5867 16.0373 15.9319 15.4313C14.197 13.8298 9.23273 14.4661 6.96324 11.6623C5.97731 10.446 5.79116 8.30018 7.00329 6.7441C9.11585 4.02583 15.315 3.86026 17.9806 5.91304C20.4417 7.81756 19.7772 10.3454 17.7912 10.3454C15.4027 10.3454 16.6581 7.22023 12.802 7.22023C10.0065 7.22023 8.90698 9.20808 10.8756 10.1755C13.5444 11.5011 20.3454 11.0585 20.3454 16.2386C20.3399 18.3942 19.0185 20.0011 16.9601 20.8408Z" fill="white"/>
</svg>
