<svg width="194" height="35" viewBox="0 0 194 35" fill="none" xmlns="http://www.w3.org/2000/svg">
<rect width="35" height="35" fill="#F2F2F2"/>
<rect width="35" height="35" fill="#51B27E"/>
<path d="M20.4488 14.0758H30L17.5087 23.1343L22.9368 21.7259L25.2157 28.75L17.4913 23.1342L9.76694 28.75L12.7245 19.6743L5 14.0583L14.5512 14.0758L17.5087 5L20.4488 14.0758Z" fill="white"/>
<rect x="40" width="35" height="35" fill="#F2F2F2"/>
<rect x="40" width="35" height="35" fill="#51B27E"/>
<path d="M60.4488 14.0758H70L57.5087 23.1343L62.9368 21.7259L65.2157 28.75L57.4913 23.1342L49.7669 28.75L52.7245 19.6743L45 14.0583L54.5512 14.0758L57.5087 5L60.4488 14.0758Z" fill="white"/>
<rect x="80" width="33.75" height="35" fill="#F2F2F2"/>
<rect x="80" width="33.75" height="35" fill="#51B27E"/>
<path d="M99.6764 14.0758H108.75L96.8833 23.1343L102.04 21.7259L104.205 28.75L96.8667 23.1342L89.5286 28.75L92.3383 19.6743L85 14.0583L94.0736 14.0758L96.8833 5L99.6764 14.0758Z" fill="white"/>
<rect x="118.75" width="35" height="35" fill="#F2F2F2"/>
<rect x="118.75" width="35" height="35" fill="#51B27E"/>
<path d="M139.199 14.0758H148.75L136.259 23.1343L141.687 21.7259L143.966 28.75L136.241 23.1342L128.517 28.75L131.474 19.6743L123.75 14.0583L133.301 14.0758L136.259 5L139.199 14.0758Z" fill="white"/>
<rect x="159" width="35" height="35" fill="#F2F2F2"/>
<rect x="159" width="35" height="35" fill="#51B27E"/>
<path d="M179.199 14.0758H188.75L176.259 23.1343L181.687 21.7259L183.966 28.75L176.241 23.1342L168.517 28.75L171.474 19.6743L163.75 14.0583L173.301 14.0758L176.259 5L179.199 14.0758Z" fill="white"/>
</svg>
