<svg width="30" height="24" viewBox="0 0 30 24" fill="none" xmlns="http://www.w3.org/2000/svg">
<path d="M1.80363 10.4521L19.3277 3.32846C21.0576 2.58642 26.924 0.21188 26.924 0.21188C26.924 0.21188 29.6316 -0.82698 29.406 1.69597C29.3308 2.73483 28.7291 6.37083 28.1274 10.3037L26.2471 21.9537C26.2471 21.9537 26.0967 23.6604 24.8181 23.9573C23.5396 24.2541 21.4337 22.9184 21.0576 22.6216C20.7568 22.399 15.4168 19.0598 13.4613 17.4273C12.9348 16.982 12.3331 16.0916 13.5365 15.0527C16.2441 12.604 19.4782 9.56162 21.4337 7.63231C22.3362 6.74186 23.2387 4.66414 19.4782 7.18708L8.87344 14.2365C8.87344 14.2365 7.67007 14.9785 5.41375 14.3107C3.15742 13.6429 0.525042 12.7524 0.525042 12.7524C0.525042 12.7524 -1.28002 11.6393 1.80363 10.4521Z" fill="white"/>
</svg>
