<svg width="32" height="36" viewBox="0 0 32 36" fill="none" xmlns="http://www.w3.org/2000/svg">
<path d="M25.09 35.2739H6.9082C4.70166 35.2739 2.9082 33.4618 2.9082 31.2323V11.3913C2.9082 10.7829 3.39693 10.2891 3.99911 10.2891H27.9991C28.6013 10.2891 29.09 10.7829 29.09 11.3913V31.2323C29.09 33.4618 27.2966 35.2739 25.09 35.2739ZM5.09002 12.4936V31.2323C5.09002 32.2449 5.90602 33.0694 6.9082 33.0694H25.09C26.0922 33.0694 26.9082 32.2449 26.9082 31.2323V12.4936H5.09002Z" fill="#4E5FF7"/>
<path d="M30.9091 12.4935H1.09091C0.488727 12.4935 0 11.9997 0 11.3912V8.45183C0 6.22229 1.79345 4.41016 4 4.41016H28C30.2065 4.41016 32 6.22229 32 8.45183V11.3912C32 11.9997 31.5113 12.4935 30.9091 12.4935ZM2.18182 10.2889H29.8182V8.45183C29.8182 7.4392 29.0022 6.6147 28 6.6147H4C2.99782 6.6147 2.18182 7.4392 2.18182 8.45183V10.2889Z" fill="#4E5FF7"/>
<path d="M20.7271 6.61364H11.2725C10.6704 6.61364 10.1816 6.11982 10.1816 5.51137V2.57197C10.1816 1.15371 11.3235 0 12.7271 0H19.2726C20.6762 0 21.818 1.15371 21.818 2.57197V5.51137C21.818 6.11982 21.3293 6.61364 20.7271 6.61364ZM12.3635 4.40909H19.6362V2.57197C19.6362 2.36915 19.4733 2.20455 19.2726 2.20455H12.7271C12.5264 2.20455 12.3635 2.36915 12.3635 2.57197V4.40909Z" fill="#4E5FF7"/>
<path d="M9.81747 29.3913C9.21529 29.3913 8.72656 28.8975 8.72656 28.2891V17.2663C8.72656 16.6579 9.21529 16.1641 9.81747 16.1641C10.4197 16.1641 10.9084 16.6579 10.9084 17.2663V28.2891C10.9084 28.8975 10.4197 29.3913 9.81747 29.3913Z" fill="#4E5FF7"/>
<path d="M15.9991 29.3913C15.3969 29.3913 14.9082 28.8975 14.9082 28.2891V17.2663C14.9082 16.6579 15.3969 16.1641 15.9991 16.1641C16.6013 16.1641 17.09 16.6579 17.09 17.2663V28.2891C17.09 28.8975 16.6013 29.3913 15.9991 29.3913Z" fill="#4E5FF7"/>
<path d="M22.1827 29.3913C21.5805 29.3913 21.0918 28.8975 21.0918 28.2891V17.2663C21.0918 16.6579 21.5805 16.1641 22.1827 16.1641C22.7849 16.1641 23.2736 16.6579 23.2736 17.2663V28.2891C23.2736 28.8975 22.7849 29.3913 22.1827 29.3913Z" fill="#4E5FF7"/>
</svg>
