<svg width="32" height="36" viewBox="0 0 32 36" fill="none" xmlns="http://www.w3.org/2000/svg">
<path d="M25.091 35.2739H6.90918C4.70263 35.2739 2.90918 33.4618 2.90918 31.2323V11.3913C2.90918 10.7829 3.39791 10.2891 4.00009 10.2891H28.0001C28.6023 10.2891 29.091 10.7829 29.091 11.3913V31.2323C29.091 33.4618 27.2975 35.2739 25.091 35.2739ZM5.091 12.4936V31.2323C5.091 32.2449 5.907 33.0694 6.90918 33.0694H25.091C26.0932 33.0694 26.9092 32.2449 26.9092 31.2323V12.4936H5.091Z" fill="#7C7C7C"/>
<path d="M30.9091 12.4915H1.09091C0.488727 12.4915 0 11.9977 0 11.3893V8.44987C0 6.22034 1.79345 4.4082 4 4.4082H28C30.2065 4.4082 32 6.22034 32 8.44987V11.3893C32 11.9977 31.5113 12.4915 30.9091 12.4915ZM2.18182 10.287H29.8182V8.44987C29.8182 7.43725 29.0022 6.61275 28 6.61275H4C2.99782 6.61275 2.18182 7.43725 2.18182 8.44987V10.287Z" fill="#7C7C7C"/>
<path d="M20.7271 6.61364H11.2725C10.6704 6.61364 10.1816 6.11982 10.1816 5.51137V2.57197C10.1816 1.15371 11.3235 0 12.7271 0H19.2726C20.6762 0 21.818 1.15371 21.818 2.57197V5.51137C21.818 6.11982 21.3293 6.61364 20.7271 6.61364ZM12.3635 4.40909H19.6362V2.57197C19.6362 2.36915 19.4733 2.20455 19.2726 2.20455H12.7271C12.5264 2.20455 12.3635 2.36915 12.3635 2.57197V4.40909Z" fill="#7C7C7C"/>
<path d="M9.81845 29.3933C9.21627 29.3933 8.72754 28.8995 8.72754 28.291V17.2683C8.72754 16.6598 9.21627 16.166 9.81845 16.166C10.4206 16.166 10.9094 16.6598 10.9094 17.2683V28.291C10.9094 28.8995 10.4206 29.3933 9.81845 29.3933Z" fill="#7C7C7C"/>
<path d="M16.0001 29.3933C15.3979 29.3933 14.9092 28.8995 14.9092 28.291V17.2683C14.9092 16.6598 15.3979 16.166 16.0001 16.166C16.6023 16.166 17.091 16.6598 17.091 17.2683V28.291C17.091 28.8995 16.6023 29.3933 16.0001 29.3933Z" fill="#7C7C7C"/>
<path d="M22.1817 29.3933C21.5795 29.3933 21.0908 28.8995 21.0908 28.291V17.2683C21.0908 16.6598 21.5795 16.166 22.1817 16.166C22.7839 16.166 23.2726 16.6598 23.2726 17.2683V28.291C23.2726 28.8995 22.7839 29.3933 22.1817 29.3933Z" fill="#7C7C7C"/>
</svg>
