<svg width="8" height="8" viewBox="0 0 8 8" fill="none" xmlns="http://www.w3.org/2000/svg">
<path fill-rule="evenodd" clip-rule="evenodd" d="M0.11508 7.32908C-0.0381614 7.48232 -0.0381613 7.73078 0.11508 7.88402C0.268321 8.03726 0.516773 8.03726 0.670014 7.88402L3.99851 4.55552L7.32908 7.8861C7.48232 8.03934 7.73078 8.03934 7.88402 7.8861C8.03726 7.73286 8.03726 7.4844 7.88402 7.33116L4.55344 4.00059L7.88417 0.669866C8.03741 0.516625 8.03741 0.268172 7.88417 0.114931C7.73092 -0.0383101 7.48247 -0.0383104 7.32923 0.114931L3.99851 3.44565L0.669866 0.117012C0.516625 -0.0362288 0.268172 -0.0362287 0.114931 0.117012C-0.0383101 0.270253 -0.0383104 0.518706 0.114931 0.671947L3.44357 4.00059L0.11508 7.32908Z" fill="black"/>
</svg>
