<svg width="38" height="20" viewBox="0 0 38 20" fill="none" xmlns="http://www.w3.org/2000/svg">
<path d="M12.5371 4.69687V8.34161C12.5371 8.91193 12.3073 9.4589 11.8982 9.86218C11.4892 10.2655 10.9344 10.492 10.3559 10.492C9.7774 10.492 9.22261 10.2655 8.81355 9.86218C8.4045 9.4589 8.1747 8.91193 8.1747 8.34161V4.69687C8.1747 4.12655 8.4045 3.57958 8.81355 3.17631C9.22261 2.77303 9.7774 2.54647 10.3559 2.54647C10.9344 2.54647 11.4892 2.77303 11.8982 3.17631C12.3073 3.57958 12.5371 4.12655 12.5371 4.69687Z" fill="#4E5FF7"/>
<path d="M17.4185 0.95007C17.1443 0.949669 16.871 0.982971 16.6052 1.04921C15.6196 1.21468 14.8942 1.87729 13.6136 2.47503C13.6274 2.59605 13.6343 2.71773 13.6343 2.83951V8.32703C13.6343 9.18474 13.2887 10.0073 12.6735 10.6138C12.0584 11.2203 11.224 11.561 10.354 11.561C9.48405 11.561 8.6497 11.2203 8.03453 10.6138C7.41936 10.0073 7.07376 9.18474 7.07376 8.32703V2.84534C7.074 2.72355 7.08116 2.60186 7.0952 2.48086C5.8168 1.87656 5.09147 1.21468 4.10587 1.04921C3.36346 0.863281 2.57855 0.938191 1.8861 1.26105C1.19365 1.58392 0.636948 2.13456 0.311722 2.81828C-0.0135036 3.502 -0.0869259 4.27608 0.104081 5.0074C0.295089 5.73871 0.738588 6.38156 1.35831 6.8254C1.4569 6.88712 1.55302 6.94908 1.64667 7.01128L1.65407 7.01566C5.64083 9.63331 6.93032 12.5404 7.06193 16.6524C7.05538 17.083 7.13576 17.5106 7.29838 17.9103C7.461 18.31 7.70261 18.6738 8.00917 18.9806C8.31572 19.2874 8.6811 19.531 9.08404 19.6973C9.48698 19.8636 9.91944 19.9492 10.3563 19.9492C10.7931 19.9492 11.2255 19.8636 11.6285 19.6973C12.0314 19.531 12.3968 19.2874 12.7033 18.9806C13.0099 18.6738 13.2515 18.31 13.4141 17.9103C13.5768 17.5106 13.6571 17.083 13.6506 16.6524C13.7822 12.544 15.0717 9.63331 19.0584 7.01566L19.0658 7.01128C19.1605 6.94956 19.2566 6.8876 19.3542 6.8254C19.9172 6.4224 20.3363 5.854 20.5514 5.2017C20.7666 4.54939 20.7667 3.84668 20.5517 3.19431C20.3368 2.54194 19.9179 1.97342 19.355 1.57025C18.7921 1.16709 18.1142 0.949984 17.4185 0.95007Z" fill="#4E5FF7"/>
<path d="M26.6859 8.23956H29.7344C29.7078 6.87351 30.2335 5.56213 31.5481 5.14371C32.008 4.99813 32.5004 4.98473 32.9677 5.10508C34.0613 5.38573 34.5419 6.28744 34.5419 7.67535C34.5153 8.63903 33.8964 9.66611 32.2712 10.8018C30.5477 11.9915 28.8886 13.2132 27.7906 14.7148C26.9499 15.8133 26.5336 17.1203 26.4405 18.5054H38V15.9227H30.6143C31.2797 14.975 32.1559 14.0777 33.54 13.2985C34.7534 12.6337 35.7582 11.7451 36.6905 10.777C37.2146 10.1745 37.5782 9.45271 37.7486 8.67693C37.9286 7.86536 37.9231 7.02446 37.7323 6.21527C37.5519 5.37717 37.1502 4.60091 36.5678 3.965C35.9696 3.27104 35.089 2.75568 33.8032 2.4969C33.0934 2.35534 32.3669 2.31265 31.645 2.37006C30.2668 2.47649 29.0534 2.9022 28.1359 3.90086C27.0904 5.07082 26.7369 6.31514 26.6859 8.23956Z" fill="#4E5FF7"/>
</svg>
